<?xml version="1.0" encoding="UTF-8"?>
<svg version="1.1" xmlns="http://www.w3.org/2000/svg" width="243" height="207">
<path d="M0 0 C80.19 0 160.38 0 243 0 C243 68.31 243 136.62 243 207 C162.81 207 82.62 207 0 207 C0 138.69 0 70.38 0 0 Z " fill="#00BCF2" transform="translate(0,0)"/>
<path d="M0 0 C3.375 1.5 3.375 1.5 6 4 C7.54775355 9.17289973 8.3902393 14.22295594 9 19.59375 C9.08066711 20.29525681 9.16133423 20.99676361 9.2444458 21.7195282 C9.50217355 23.97906707 9.75151634 26.23942741 10 28.5 C10.17539815 30.06161129 10.35085432 31.62321606 10.52636719 33.18481445 C11.92589677 45.77006708 13.07930102 58.37033041 14 71 C14.65355469 69.78763672 14.65355469 69.78763672 15.3203125 68.55078125 C15.91585937 67.48214844 16.51140625 66.41351563 17.125 65.3125 C17.70507812 64.25675781 18.28515625 63.20101562 18.8828125 62.11328125 C21.17965244 58.73582474 23.48729309 56.08507508 27 54 C29.92787409 53.50890084 32.27137637 53.30360559 35.18920898 53.3371582 C36.38797668 53.32160637 36.38797668 53.32160637 37.61096191 53.30574036 C40.239869 53.2787447 42.86709893 53.28831572 45.49609375 53.30078125 C47.33163414 53.29486913 49.16717068 53.28762106 51.00270081 53.27909851 C54.84518561 53.2672308 58.68709072 53.27390437 62.52954102 53.29321289 C67.44378926 53.31608925 72.35630722 53.28932805 77.27038479 53.24815083 C81.05983646 53.22252379 84.84887687 53.22516613 88.63838387 53.23604393 C90.44961174 53.23752682 92.26087173 53.22988466 94.07201958 53.21279335 C96.6095323 53.19273467 99.14402106 53.21128231 101.68139648 53.23950195 C102.42291458 53.22578552 103.16443268 53.21206909 103.92842102 53.19793701 C109.1630174 53.31376134 111.84942245 54.93693479 115.67727757 58.46399212 C118.21147727 61.40682473 117.82494661 63.91979126 117.5703125 67.58984375 C116.64696504 71.49193539 114.92133164 73.2873349 112 76 C109.03592441 77.48203779 106.37920835 77.11920826 103.07177734 77.11352539 C102.00332329 77.11374443 102.00332329 77.11374443 100.9132843 77.1139679 C98.55413794 77.11327011 96.19507011 77.10548397 93.8359375 77.09765625 C92.20211836 77.0957916 90.56829866 77.09436792 88.93447876 77.09336853 C84.6305182 77.08954709 80.32659129 77.07971998 76.02264404 77.06866455 C71.63228816 77.05844242 67.24192685 77.05386919 62.8515625 77.04882812 C54.23435954 77.03809739 45.61718396 77.02102543 37 77 C36.70301208 77.91987701 36.40602417 78.83975403 36.10003662 79.7875061 C34.86610504 83.3910204 33.25700479 86.7098209 31.515625 90.0859375 C31.17754822 90.74655182 30.83947144 91.40716614 30.4911499 92.08779907 C29.77725564 93.4789508 29.0610896 94.86893884 28.34277344 96.2578125 C27.25894169 98.35767597 26.18774937 100.46365948 25.1171875 102.5703125 C16.27711409 119.81525727 16.27711409 119.81525727 10 124 C3.09741551 124.66799205 3.09741551 124.66799205 -0.875 122.25 C-4.80459526 118.08925208 -5.36608504 114.47960511 -6 108.83203125 C-6.12093269 107.77558662 -6.12093269 107.77558662 -6.24430847 106.69779968 C-6.5042162 104.40351602 -6.75245872 102.10814816 -7 99.8125 C-7.17594167 98.23304544 -7.35213135 96.65361849 -7.52856445 95.07421875 C-8.69175266 84.52352467 -9.66886647 73.96820609 -10.40429688 63.37817383 C-10.47068359 62.43868896 -10.53707031 61.4992041 -10.60546875 60.53125 C-10.65856201 59.72236328 -10.71165527 58.91347656 -10.76635742 58.08007812 C-10.9485108 55.80720484 -10.9485108 55.80720484 -12 53 C-12.27150879 53.51908936 -12.54301758 54.03817871 -12.82275391 54.57299805 C-14.07678365 56.95183356 -15.35062766 59.3195044 -16.625 61.6875 C-17.05167969 62.50412109 -17.47835937 63.32074219 -17.91796875 64.16210938 C-18.34980469 64.95810547 -18.78164062 65.75410156 -19.2265625 66.57421875 C-19.61408691 67.30213623 -20.00161133 68.03005371 -20.40087891 68.7800293 C-23.73593563 73.4099027 -26.31236453 75.71421295 -31.89404297 76.65942383 C-33.34294144 76.70006633 -34.79273989 76.71479065 -36.2421875 76.70703125 C-37.01055939 76.72215256 -37.77893127 76.73727386 -38.57058716 76.75285339 C-41.00569369 76.79556994 -43.4395569 76.80455205 -45.875 76.8125 C-47.53388685 76.83565705 -49.1927444 76.86102491 -50.8515625 76.88867188 C-54.90115078 76.95136468 -58.9499696 76.98382525 -63 77 C-55.75670117 85.93589647 -48.48274287 94.78154251 -40.625 103.1875 C-38.87419193 105.06336579 -37.14482072 106.95946944 -35.4375 108.875 C-24.66029509 120.93520549 -12.82212745 132.13138329 0 142 C0.84812256 142.65693848 0.84812256 142.65693848 1.71337891 143.32714844 C10.09147305 149.77937188 18.50949112 155.31076037 28 160 C28 160.33 28 160.66 28 161 C-11.27 161 -50.54 161 -91 161 C-91 113.15 -91 65.3 -91 16 C-90.67 16 -90.34 16 -90 16 C-89.88785156 17.12921875 -89.88785156 17.12921875 -89.7734375 18.28125 C-88.4513858 28.96135397 -85.16422751 38.73731414 -80.30859375 48.34765625 C-79 51 -79 51 -79 53 C-65.47 53 -51.94 53 -38 53 C-37.34 51.02 -36.68 49.04 -36 47 C-35.22756081 45.34334916 -34.41559163 43.7045908 -33.56640625 42.0859375 C-33.0876001 41.16917236 -32.60879395 40.25240723 -32.11547852 39.30786133 C-31.60299561 38.34001709 -31.0905127 37.37217285 -30.5625 36.375 C-30.03261475 35.37041748 -29.50272949 34.36583496 -28.95678711 33.33081055 C-27.85553838 31.24914796 -26.75142513 29.16899839 -25.64453125 27.09033203 C-24.57231594 25.07547137 -23.50439431 23.05831815 -22.44140625 21.03857422 C-20.99358454 18.29006334 -19.53063573 15.55020273 -18.0625 12.8125 C-17.62687744 11.98218262 -17.19125488 11.15186523 -16.74243164 10.29638672 C-12.8303693 3.08904557 -8.90540042 -1.67303022 0 0 Z " fill="#FDFEFE" transform="translate(91,46)"/>
<path d="M0 0 C0.33 0 0.66 0 1 0 C1 45.87 1 91.74 1 139 C-39.26 139 -79.52 139 -121 139 C-118.41547412 137.06160559 -116.21474889 135.47283164 -113.453125 133.94140625 C-102.99693625 128.0339479 -93.41393432 121.44924208 -84 114 C-82.9790625 113.19304687 -81.958125 112.38609375 -80.90625 111.5546875 C-75.55065903 107.23711838 -70.39355017 102.73020828 -65.3125 98.09375 C-63.34344409 96.31095614 -61.34109798 94.58881553 -59.3125 92.875 C-48.95755777 83.82494887 -39.41216434 73.87158668 -31 63 C-30.21496094 62.04351562 -29.42992187 61.08703125 -28.62109375 60.1015625 C-14.29827184 42.30450367 -4.42138469 22.43142873 0 0 Z " fill="#FEFEFE" transform="translate(242,68)"/>
<path d="M0 0 C62.04 0 124.08 0 188 0 C188 18.15 188 36.3 188 55 C187.67 55 187.34 55 187 55 C186.87625 54.030625 186.7525 53.06125 186.625 52.0625 C184.33403708 36.38125384 177.88451798 20.94087811 165 11 C151.52238192 2.21245756 136.88744269 -0.26552847 121.05004883 3.02490234 C98.5652202 8.39960773 80.63290478 22.72610636 67 41 C64.49529248 38.50871055 62.00713576 36.00744452 59.5625 33.45703125 C43.35971085 16.73555525 23.69284436 3.235174 0 1 C0 0.67 0 0.34 0 0 Z " fill="#FCFEFE" transform="translate(55,0)"/>
<path d="M0 0 C14.85 0 29.7 0 45 0 C41.87037281 1.56481359 39.61107561 2.42137231 36.3125 3.25 C22.71159049 7.26436536 13.73730533 18.03399716 7 30 C3.72684138 36.13844701 2.08793412 42.14315206 1 49 C0.67 49 0.34 49 0 49 C0 32.83 0 16.66 0 0 Z " fill="#FBFDFE" transform="translate(0,0)"/>
</svg>
